<svg xmlns="http://www.w3.org/2000/svg" viewBox="-8 -12 116 116">
 <g transform="translate(100, 0) scale(-1, 1)">
 <path fill="#9AB1C0" stroke="#9AB1C0" stroke-width="1.5" stroke-linejoin="round" stroke-linecap="round" d="m45.199 60.301c0.27344-0.46094 0.85938-0.62109 1.332-0.37109 0.58594 0.32031 1.1484 0.67578 1.6875 1.0703 0.42578 0.32422 0.52344 0.92188 0.22266 1.3594-0.1875 0.25-0.48047 0.39844-0.79297 0.40234-0.20703-0.003907-0.41016-0.070313-0.57813-0.19141-0.48047-0.35937-0.97656-0.69141-1.4922-1-0.42578-0.26562-0.58984-0.8125-0.37891-1.2695zm34.68 0.69922c-3.2383 4.3633-4.9531 9.668-4.8789 15.102v13.508c0 1.1172-0.88672 2.0273-2 2.0625h-30.879c-1.1172-0.035156-2-0.94531-2-2.0625v-10.371h-8.6211c-5.6094-0.003906-10.156-4.5508-10.16-10.16v-11.316h-5.4297c-0.92578-0.007813-1.7773-0.50391-2.2422-1.3086-0.46094-0.80078-0.46484-1.7891-0.007813-2.5938l6.6484-11.512v0.003906c0.66406-1.1992 1.0508-2.5273 1.1406-3.8906 0.62891-8.457 4.5352-16.336 10.887-21.961 6.3477-5.6211 14.641-8.543 23.113-8.1406 8.2734 0.44922 16.082 3.9844 21.871 9.9102 5.793 5.9258 9.1523 13.809 9.4102 22.09 0.17578 7.4648-2.2461 14.762-6.8516 20.641zm-10.801-34.609c0.14844-1.5312-0.47656-3.0312-1.668-4-1.2734-0.71875-2.7188-1.0664-4.1797-1-0.34375-0.019531-0.65234-0.21094-0.82031-0.51172-0.92969-1.6562-2.7344-2.6289-4.6289-2.5-0.96484 0.12109-1.8906 0.46484-2.7031 1v30l0.078125 0.058594 0.26172 0.19141h0.003906c0.91797 0.64453 2.0156 0.99219 3.1367 1 1.9141 0 3.5742-1.3242 4-3.1875 0.058594-0.30078 0.24609-0.55469 0.51562-0.69922 0.26953-0.14063 0.58594-0.15234 0.86719-0.03125 1.1328 0.50781 2.4336 0.48047 3.5469-0.070313 1.1055-0.58594 1.8711-1.6562 2.0703-2.8906 0.10938-0.9375-0.027344-1.8828-0.39844-2.75-0.57422 0.17969-1.168 0.29297-1.7695 0.33984h-0.082031c-0.55078 0.019531-1.0156-0.41406-1.0352-0.96484-0.019532-0.55078 0.41406-1.0156 0.96484-1.0352 0.69141-0.0625 1.3672-0.23828 2-0.51953h0.070313c1.0625-0.47656 1.9453-1.2734 2.5312-2.2812 0.91016-1.6172 0.76953-3.625-0.35938-5.0977-1-1.1797-2.5703-1.75-4.3711-2.3203-0.50391-0.17188-0.78516-0.70703-0.64062-1.2227 0.17188-0.50781 0.71484-0.78906 1.2305-0.63672l1.1719 0.39062v-0.003906c0.10938-0.41016 0.17969-0.83203 0.20703-1.2578zm15.648 14h0.003907c-0.24609-7.7852-3.4062-15.195-8.8516-20.766-5.4453-5.5703-12.781-8.8945-20.559-9.3164h-1.3398c-7.7344-0.023438-15.188 2.8867-20.863 8.1367-5.6719 5.2539-9.1445 12.465-9.7188 20.176-0.11328 1.6523-0.58984 3.2617-1.3984 4.707l-6.6406 11.512c-0.12891 0.19922-0.13672 0.45312-0.019531 0.66406 0.11328 0.20703 0.33203 0.33594 0.57031 0.33594h6.4102c0.26563 0 0.51953 0.10547 0.70703 0.29297s0.29297 0.44141 0.29297 0.70703v12.301c0.003907 4.5273 3.6719 8.1992 8.1992 8.2109h9.4805c0.26562 0 0.51953 0.10547 0.70703 0.29297s0.29297 0.44141 0.29297 0.70703v11.258c0.003906 0.054687 0.046875 0.097656 0.10156 0.10156h11v-14.211h-3.8008c-4.4258-0.011719-8.668-1.7812-11.793-4.9141-3.1289-3.1328-4.8867-7.3789-4.8867-11.805 0-0.55469 0.44531-1 1-1h4.7812-0.003906c1.3281-0.003906 2.6523 0.16016 3.9414 0.48047 0.42578 0.20312 0.64844 0.67578 0.53516 1.1328-0.10938 0.45703-0.52344 0.77734-0.99609 0.76562-1.1367-0.28125-2.3047-0.42188-3.4805-0.42188h-3.7969c0.25 3.7383 1.9102 7.2422 4.6445 9.8047s6.3359 3.9922 10.082 3.9961h3.7734c-0.20312-3.0938-1.3828-6.0469-3.3711-8.4297-0.24219-0.18359-0.38281-0.46875-0.39062-0.77344-0.003906-0.30078 0.12891-0.58984 0.36328-0.78516 0.23047-0.19531 0.53906-0.27344 0.83594-0.21094 0.29688 0.058594 0.55078 0.25 0.69141 0.51953 0.73438 0.87891 1.3711 1.8359 1.8984 2.8516v-15c-1.0352 0.58984-2.1992 0.91016-3.3906 0.9375h-0.12891c-0.87891-0.03125-1.7422-0.25391-2.5312-0.64844-0.29297-0.070312-0.54297-0.26953-0.67188-0.54688-0.12891-0.27344-0.12891-0.59375 0.007812-0.86719 0.13281-0.27344 0.38281-0.46875 0.67969-0.53516 0.30078-0.066406 0.60938 0.007813 0.84766 0.19922 0.53516 0.26172 1.1211 0.39844 1.7188 0.41016 1.1445-0.027344 2.2578-0.39453 3.1914-1.0586l0.14844-0.10937 0.12891-0.10156v-30c-0.80859-0.53906-1.7344-0.87891-2.6992-1-1.8906-0.11328-3.6836 0.85547-4.6289 2.5-0.16797 0.30078-0.47656 0.49219-0.82031 0.50781-1.4492-0.058594-2.8867 0.28516-4.1523 1-1.2031 0.96484-1.8398 2.4688-1.6992 4 0.023438 0.42187 0.082032 0.83984 0.17969 1.25l1.1719-0.39063v0.003907c0.51172-0.14844 1.0469 0.13281 1.2188 0.63672 0.14844 0.51172-0.12891 1.0469-0.62891 1.2227-1.8086 0.57031-3.3789 1.1406-4.3711 2.3203-1.1328 1.4766-1.2773 3.4844-0.37109 5.1094 0.59375 0.99219 1.4727 1.7812 2.5234 2.2578l0.10938 0.050781c0.63281 0.28125 1.3086 0.45703 2 0.51953 0.55078 0.023438 0.98047 0.48828 0.96094 1.043-0.023437 0.55078-0.48828 0.98047-1.043 0.95703h-0.070312c-0.59375-0.058594-1.1797-0.1875-1.75-0.37891-0.37891 0.88281-0.51562 1.8477-0.39844 2.8008 0.20703 1.2344 0.97656 2.3047 2.0781 2.8984 1.1133 0.55469 2.4141 0.57812 3.543 0.0625 0.27344-0.13281 0.59375-0.13281 0.86719 0 0.26953 0.14062 0.45703 0.39844 0.51172 0.69922 0.023438 0.15625 0.0625 0.30859 0.12109 0.46094 0.17578 0.50391-0.074219 1.0586-0.57031 1.2578-0.10938 0.046874-0.23047 0.074218-0.35156 0.070312-0.29688-0.003906-0.57422-0.14062-0.75781-0.37109-1.6172 0.42969-3.3398 0.15234-4.7461-0.75781-1.4023-0.91016-2.3555-2.3711-2.625-4.0195-0.17578-1.332 0.011719-2.6836 0.55078-3.9102-1.1016-0.65625-2.0156-1.582-2.6523-2.6914-1.3125-2.3281-1.0898-5.2227 0.57031-7.3203 0.63672-0.73047 1.4141-1.3281 2.2812-1.7578-0.17188-0.63672-0.27344-1.2852-0.30078-1.9414-0.18359-2.2109 0.76953-4.3633 2.5312-5.7109 1.3984-0.875 3.0195-1.3281 4.668-1.3086 1.3828-2.0469 3.7578-3.1953 6.2227-3 1.25 0.14453 2.4531 0.57422 3.5078 1.2578 1.0547-0.68359 2.25-1.1172 3.5-1.2578 2.4648-0.19141 4.8438 0.95312 6.2305 3 1.6562-0.015626 3.2852 0.44141 4.6914 1.3203 1.7266 1.3594 2.6523 3.4961 2.4688 5.6875-0.035156 0.65234-0.14062 1.3008-0.30859 1.9297 0.87891 0.42969 1.6641 1.0273 2.3086 1.7617 1.6602 2.0977 1.8906 4.9883 0.57812 7.3203-0.63672 1.1055-1.5469 2.0312-2.6484 2.6797 0.53516 1.2383 0.72266 2.5938 0.53906 3.9297-0.26172 1.6406-1.2031 3.0977-2.5977 4.0078-1.3906 0.91016-3.1016 1.1914-4.7109 0.77344-0.97656 2.2109-3.1406 3.668-5.5586 3.7383h-0.14062c-1.1914-0.03125-2.3555-0.35156-3.3906-0.9375v13c0.82422-1.5781 1.8867-3.0195 3.1484-4.2734 3.2383-3.2734 7.6562-5.1094 12.262-5.0898h4c0.26562 0 0.51953 0.10547 0.70703 0.29297s0.29297 0.44141 0.29297 0.70703c-0.027344 4.6016-1.875 9.0039-5.1367 12.242-3.2617 3.2422-7.6758 5.0625-12.273 5.0586h-3v0.80078 0.10938 0 15.191h17.93c0.054688-0.003907 0.09375-0.046876 0.10156-0.10156v-13.508c-0.09375-5.8711 1.7539-11.609 5.2578-16.32 4.2969-5.5234 6.5508-12.359 6.3906-19.352zm-26.656 31.27c3.9102-0.015625 7.6719-1.5117 10.527-4.1875 2.8516-2.6797 4.582-6.3398 4.8438-10.242h-3c-3.9062 0.023437-7.6602 1.5234-10.504 4.2031-2.8438 2.6758-4.5664 6.3281-4.8281 10.227z"/>
 </g>
</svg>
