<svg xmlns="http://www.w3.org/2000/svg" version="1.1" viewBox="-5.0 -10.0 110.0 135.0">
 <path d="m21.246 60.988c6.5469 4.8281 14.703 7.2617 24.293 7.2617 1.6602 0 3.3633-0.074219 5.1055-0.22266l0.054688 26.145-21.32 0.027344c-0.44141 0-0.80078 0.35938-0.80078 0.80078s0.35938 0.80078 0.80078 0.80078l45.379-0.054687c0.44141 0 0.80078-0.35938 0.80078-0.80078 0-0.44141-0.35938-0.80078-0.80078-0.80078l-22.457 0.027344-0.074219-35.711c4.1875 0.71094 7.9141 1.0703 11.254 1.0703 6.3711 0 11.352-1.3047 15.492-3.9648 6.6133-4.2539 11.5-12.188 15.84-25.727 0.070312-0.22266 0.042969-0.46094-0.078125-0.66016-0.12109-0.19922-0.32031-0.33594-0.55078-0.37109-18.219-3.0391-32.676 5.832-41.969 25.676l-0.042969-20.133c4.7227-1.5078 7.7617-4.4102 8.7969-8.4141 1.5898-6.1523-1.7539-14.391-8.7266-21.5-0.14844-0.15234-0.35156-0.23828-0.5625-0.23828-0.20313 0.003906-0.41797 0.082031-0.57031 0.23047-6.9141 6.8047-10.379 15.227-8.8281 21.449 0.98047 3.9453 3.8438 6.8164 8.293 8.3477l0.054687 25.559c-1.793-8.1328-5.3789-14.41-10.703-18.711-7.7109-6.2266-19.176-8.4062-34.078-6.4844-0.23047 0.03125-0.4375 0.16016-0.56641 0.35547-0.12891 0.19531-0.16406 0.4375-0.10156 0.66016 3.2695 11.391 8.6758 19.934 16.066 25.383zm71.758-30.746c-4.1445 12.617-8.7539 20.031-14.895 23.977-5.418 3.4844-12.465 4.4805-22.543 3.1328 1.8594-0.58594 4.2656-1.457 6.8633-2.6914 7.4766-3.5547 12.867-8.4414 15.59-14.125 0.19141-0.39844 0.023438-0.875-0.375-1.0664-0.39844-0.19141-0.875-0.023438-1.0664 0.375-5.1562 10.77-18.859 15.305-23.477 16.555 8.7812-19.645 22.539-28.668 39.902-26.156zm-49.168-4.75c-1.375-5.5195 1.6914-13.043 7.8281-19.348 6.2031 6.5664 9.168 13.945 7.7578 19.395-0.86719 3.3555-3.3086 5.75-7.25 7.125l-0.023437-11.648c0-0.44141-0.35938-0.79688-0.80078-0.79688s-0.80078 0.35938-0.79688 0.80078l0.023438 11.496c-3.6133-1.3828-5.9375-3.7891-6.7383-7.0234zm-4.918 16.824c6.1914 5 9.9102 12.887 11.059 23.453-0.015624-0.023437-0.027343-0.050781-0.046874-0.074219-6.6133-8.2461-13.961-13.68-21.836-16.148-0.42188-0.13281-0.87109 0.10156-1.0039 0.52344-0.13281 0.42188 0.10156 0.87109 0.52344 1.0039 7.5234 2.3594 14.574 7.5742 20.961 15.496-21.176 1.1211-35.16-9.1289-41.598-30.512 14-1.6602 24.742 0.44531 31.941 6.2578z"/>
<text x="0.0" y="117.5" font-size="5.0" font-weight="bold" font-family="Arbeit Regular, Helvetica, Arial-Unicode, Arial, Sans-serif" fill="#000000">Created by darwis</text><text x="0.0" y="122.5" font-size="5.0" font-weight="bold" font-family="Arbeit Regular, Helvetica, Arial-Unicode, Arial, Sans-serif" fill="#000000">from Noun Project</text></svg>