<svg xmlns="http://www.w3.org/2000/svg" version="1.1" viewBox="-5.0 -10.0 110.0 135.0">
 <path d="m35.789 67.363c0.29297 2.8789 0.33594 5.5547-0.019531 8.1602-0.375 2.7227-1.1836 5.3438-2.6016 8 5.7305-0.082032 11.414 0.30078 17.094 0.67969 1.5273 0.10156 3.0586 0.20312 4.5508 0.29688l-6.9844-8.9336c-1.168-1.4922-1.6211-3.3242-1.4062-5.0742 0.046875-0.37109 0.12109-0.74219 0.22656-1.1016l-3.793-4.8477c-2.2344 1.293-4.6172 2.2344-7.0664 2.8203zm-6.1484-18.547c1.9453 0 3.7109-0.78906 4.9844-2.0664 1.2773-1.2734 2.0664-3.0391 2.0664-4.9844s-0.78906-3.7109-2.0664-4.9844-3.0391-2.0664-4.9844-2.0664-3.7109 0.78906-4.9844 2.0664c-1.2773 1.2773-2.0664 3.0391-2.0664 4.9844s0.78906 3.7109 2.0664 4.9844c1.2773 1.2773 3.0391 2.0664 4.9844 2.0664zm6.3398-0.71094c1.6211-1.6211 2.625-3.8633 2.625-6.3359 0-2.4766-1.0039-4.7148-2.625-6.3359-0.18359-0.18359-0.37109-0.35547-0.57031-0.52344 1.3945 0.35156 2.7344 0.82812 4.0156 1.418 2.8398 1.3086 5.3711 3.168 7.4609 5.4414-2.0898 2.2734-4.6211 4.1328-7.4609 5.4414-1.2773 0.58984-2.6211 1.0664-4.0156 1.418 0.19531-0.16797 0.38672-0.34375 0.57031-0.52344zm-12.105 0.51953c-1.3945-0.35156-2.7344-0.83203-4.0156-1.418-2.8398-1.3086-5.3711-3.168-7.4609-5.4414 2.0898-2.2734 4.6211-4.1328 7.4609-5.4414 1.1289-0.51953 2.3047-0.95312 3.5234-1.2891v0.31641c-0.027343 0.023438-0.050781 0.050782-0.078124 0.078126-1.6211 1.6211-2.625 3.8633-2.625 6.3359 0 2.4766 1.0039 4.7148 2.625 6.3359 0.18359 0.18359 0.37109 0.35938 0.57031 0.52344zm-13.598-6.418c-0.011719-0.027343-0.023438-0.050781-0.035156-0.078125-0.039063-0.09375-0.058594-0.19141-0.070313-0.28906-0.003906-0.050782-0.003906-0.097656 0-0.14844 0.007813-0.097656 0.03125-0.19531 0.070313-0.28906 0.011718-0.027344 0.023437-0.054688 0.035156-0.078125 0.035156-0.066407 0.078125-0.12891 0.12891-0.1875 2.3633-2.7617 5.3125-5.0078 8.6523-6.543 3.2227-1.4844 6.8086-2.3125 10.582-2.3125s7.3594 0.82812 10.582 2.3125c3.3398 1.5391 6.2891 3.7852 8.6523 6.543 0.050781 0.058593 0.09375 0.12109 0.12891 0.1875 0.011719 0.027343 0.023438 0.050781 0.035156 0.078125 0.039063 0.09375 0.058594 0.19141 0.070313 0.28906 0.003906 0.050782 0.003906 0.097656 0 0.14844-0.007813 0.097656-0.03125 0.19531-0.070313 0.28906-0.011718 0.027344-0.023437 0.054688-0.035156 0.078125-0.035156 0.066407-0.078125 0.12891-0.12891 0.1875-2.3633 2.7617-5.3125 5.0078-8.6523 6.543-3.2227 1.4844-6.8086 2.3125-10.582 2.3125s-7.3594-0.82812-10.582-2.3125c-3.3398-1.5391-6.2891-3.7852-8.6523-6.543-0.050781-0.058593-0.09375-0.12109-0.12891-0.1875zm47.309 42.746-8.207-10.496c-0.027344-0.042969-0.058594-0.085937-0.097656-0.12109-0.80859-1.0664-1.1172-2.3672-0.96484-3.6133s0.76562-2.4336 1.8047-3.2695c0.039062-0.027344 0.082031-0.058594 0.11719-0.089844 1.0664-0.80859 2.3672-1.1172 3.6133-0.96484 1.2695 0.15625 2.4766 0.78906 3.3164 1.8633l10.816 13.832c0.011719 0.019531 0.027344 0.039062 0.042969 0.054688l3.6875 4.7188 0.003906 0.007812 0.042969 0.054688c0.83984 1.0742 1.1641 2.4023 1.0078 3.668-0.15234 1.2461-0.76562 2.4336-1.8047 3.2695-0.039063 0.027343-0.082032 0.058593-0.11719 0.089843-1.0664 0.80859-2.3672 1.1172-3.6133 0.96484-1.2695-0.15625-2.4766-0.78906-3.3164-1.8633l-6.2852-8.0391c-0.011718-0.023437-0.027343-0.042969-0.046874-0.066406zm-1.207 1.5508c-2.1445-0.12109-4.1953-0.25781-6.2461-0.39453-5.8477-0.39062-11.691-0.78125-17.484-0.66797-0.28906 0.003906-0.55859-0.0625-0.79688-0.19141-0.24219-0.13281-0.44531-0.32812-0.59375-0.57812-0.14844-0.24609-0.22266-0.51953-0.22656-0.79297-0.003906-0.27734 0.066406-0.55078 0.20312-0.80078 1.4609-2.6055 2.2773-5.1562 2.6406-7.8047 0.32812-2.3789 0.29297-4.8555 0.027344-7.5273-8.0742 1.3203-16.648-1.1367-22.875-7.3633-5.1367-5.1445-7.707-11.879-7.707-18.617s2.5703-13.473 7.7109-18.613c5.418-5.418 12.609-7.9805 19.707-7.6836 5.8633-7.1172 13.703-10.949 21.766-12.023 6.2383-0.83203 12.613-0.011718 18.297 2.207 5.7031 2.2266 10.723 5.8672 14.238 10.672 3.9531 5.3984 6 12.25 4.9844 20.199-0.058594 0.47266-0.097657 0.71875-0.13281 0.96484-0.23047 1.5469-0.44531 2.9531 0.38281 4.1523 1.2109 1.75 2.3477 3.7188 3.3516 5.6797 1.1875 2.3164 2.1875 4.6094 2.9062 6.5117 0.13672 0.36328 0.17969 0.73438 0.13281 1.1016-0.046874 0.37109-0.18359 0.72266-0.40625 1.0352-0.22266 0.31641-0.51172 0.56641-0.83984 0.73438-0.32812 0.16406-0.69531 0.25-1.082 0.24219l-3.3672-0.0625c-0.015625 0-0.027344 0.003907-0.039062 0.007813-0.003907 0.003906-0.011719 0.007813-0.023438 0.019531-0.007812 0.007813-0.015625 0.019532-0.019531 0.027344 0.042969 0.35938 0.066406 0.94531 0.039062 1.7305-0.019531 0.62891-0.066406 1.3828-0.16016 2.2422-0.050781 0.47656-0.25781 0.89844-0.57812 1.2109-0.30859 0.30859-0.71484 0.51172-1.1797 0.57031 0.71875 0.84766 0.80469 2.1914-1.0234 4.3672-0.3125 0.37109-0.3125 0.375-0.29297 0.49219 0.023438 0.16797 0.054688 0.37891 0.074219 0.62109 0.68359 7.9453-1.4336 9.4766-8.0078 10.043-1.2383 0.10547-2.7461 0.17578-4.4648 0.25781-1.0234 0.046875-2.1289 0.10156-3.4023 0.17188-0.023437 0-0.039063 0.003907-0.046875 0.007813-0.003906 0-0.015625 0.011718-0.035156 0.027344-0.57422 0.44922-1.0312 0.93359-1.3789 1.4453-0.25781 0.38281-0.46094 0.78906-0.61719 1.2148l3.3984 4.3477c0.035156 0.039062 0.066406 0.078125 0.097656 0.12109 1.1367 1.4844 1.5742 3.293 1.3633 5.0195-0.21094 1.7227-1.0664 3.3672-2.5195 4.5312-0.039063 0.035156-0.082032 0.070313-0.12891 0.10156-1.4844 1.1367-3.293 1.5742-5.0195 1.3633-1.75-0.21484-3.418-1.0938-4.5859-2.5898zm12.113-6.8555-9.8203-12.559c-1.168-1.4961-2.8398-2.375-4.5859-2.5898-0.37109-0.046875-0.75-0.058594-1.125-0.046875l-3.8672-4.9492c4.582-5.0156 6.875-11.379 6.875-17.738 0-6.7383-2.5703-13.473-7.7109-18.613-4.2656-4.2656-9.6289-6.7578-15.184-7.4844 5.4258-6.0703 12.457-9.3672 19.676-10.332 5.918-0.78906 11.961-0.011719 17.355 2.0938 5.375 2.1016 10.102 5.5195 13.395 10.02 3.6797 5.0234 5.582 11.41 4.6328 18.832-0.019531 0.16797-0.078124 0.54688-0.13281 0.92188-0.28906 1.9336-0.55469 3.6953 0.70312 5.5195 1.1641 1.6875 2.2578 3.582 3.2227 5.4609 1.1445 2.2305 2.1172 4.4609 2.8164 6.3203 0.027343 0.070313 0.035156 0.13672 0.027343 0.19141-0.007812 0.054688-0.035156 0.11328-0.074219 0.17578-0.042968 0.058594-0.089843 0.10156-0.14062 0.12891-0.054688 0.027344-0.12109 0.042969-0.19141 0.039062l-3.3672-0.0625c-0.28516-0.003906-0.55469 0.042969-0.80078 0.14844-0.25391 0.10547-0.48047 0.26172-0.67578 0.46875-0.19922 0.21094-0.35156 0.44922-0.44531 0.71094-0.09375 0.26562-0.12891 0.55078-0.09375 0.84766 0.035156 0.30078 0.054687 0.79297 0.035156 1.4609-0.019531 0.57031-0.0625 1.2695-0.15234 2.0977-0.003906 0.023437-0.011719 0.042968-0.023437 0.054687-0.015625 0.015625-0.035156 0.023437-0.058594 0.027344-0.76172 0.078125-1.2656 0.12891-1.668 0.16797-1.5703 0.15625-2.1562 0.21484-2.375 0.84375-0.35156 1.0117 0.16797 1.1445 1 1.3555 0.64844 0.16406 2.4883 0.63281 0.78125 2.668-0.85547 1.0195-0.85547 1.0391-0.72266 1.9805 0.015625 0.12109 0.039063 0.27344 0.058594 0.51562 0.54297 6.3203-1.1133 7.5352-6.2578 7.9805-1.3242 0.11328-2.7578 0.17969-4.3906 0.25781-1.0859 0.050781-2.2539 0.10547-3.4258 0.17188-0.21094 0.011719-0.41406 0.054687-0.60938 0.12891-0.19922 0.074219-0.38281 0.17578-0.54688 0.30469-0.73047 0.57031-1.3242 1.2031-1.7891 1.8945-0.11328 0.19141-0.23438 0.38672-0.34375 0.58594zm-17.625-14.781c-0.65234 0.24219-1.2812 0.58594-1.8555 1.0352l-0.003907 0.003906c-0.57422 0.44922-1.0586 0.97656-1.4492 1.5508l-3.082-3.9414c1.1406-0.78125 2.2344-1.6602 3.2695-2.6406zm-8.543-2.2383c-9.3945 5.7227-21.816 4.5234-29.941-3.6016-4.7656-4.7656-7.1484-11.012-7.1484-17.262 0-6.2461 2.3828-12.492 7.1484-17.262 9.5312-9.5312 24.988-9.5312 34.52 0 4.7656 4.7656 7.1484 11.012 7.1484 17.262 0 6.2461-2.3828 12.496-7.1484 17.262-1.2656 1.2656-2.6367 2.3633-4.0859 3.293-0.125 0.03125-0.24609 0.089844-0.35156 0.17188-0.050782 0.039062-0.10156 0.085937-0.14062 0.13672z" fill-rule="evenodd"/>
<text x="0.0" y="117.5" font-size="5.0" font-weight="bold" font-family="Arbeit Regular, Helvetica, Arial-Unicode, Arial, Sans-serif" fill="#000000">Created by Siti Zulaikah</text><text x="0.0" y="122.5" font-size="5.0" font-weight="bold" font-family="Arbeit Regular, Helvetica, Arial-Unicode, Arial, Sans-serif" fill="#000000">from Noun Project</text></svg>